<svg width="11" height="11" viewBox="0 0 11 11" fill="none" xmlns="http://www.w3.org/2000/svg">
<path d="M6.42783 1.79091L6.42784 1.79091C7.388 0.819697 8.94292 0.819697 9.90309 1.79091L10.1698 1.52726L9.90309 1.79091C10.8656 2.7645 10.8656 4.34475 9.90309 5.31834L10.1698 5.58198L9.90309 5.31834L9.24195 5.98708L8.98116 6.25086L8.98814 6.25792L5.50669 9.77939L5.49958 9.77221L5.4929 9.77896L2.0116 6.25764L2.01854 6.2506L1.75803 5.98709L1.09689 5.31835C0.13437 4.34475 0.134366 2.76451 1.09689 1.79091C2.05708 0.819702 3.61201 0.819706 4.57217 1.79091C4.57217 1.79091 4.57217 1.79091 4.57217 1.79091L5.23331 2.45966L5.49998 2.72941L5.76666 2.45967L6.42783 1.79091Z" stroke="#877B71" stroke-width="0.75"/>
</svg>
