<svg width="115" height="10" viewBox="0 0 115 10" fill="none" xmlns="http://www.w3.org/2000/svg">
<path d="M52.831 0.110718H51.6465V8.88932H52.831V0.110718Z" fill="black"/>
<path d="M57.8564 0.110718H56.6719V8.88932H57.8564V0.110718Z" fill="black"/>
<path d="M62.87 0.110718H61.6855V8.88932H62.87V0.110718Z" fill="black"/>
<path d="M89.6306 0C92.1951 0 94.2536 1.88192 94.2536 4.50554C94.2536 7.08487 92.1951 9.01107 89.6306 9.01107C87.0546 9.01107 84.9961 7.12915 84.9961 4.50554C84.9846 1.95941 87.0201 0 89.6306 0ZM89.6306 7.91513C91.5396 7.91513 93.0231 6.49816 93.0231 4.50554C93.0231 2.50185 91.4591 1.09594 89.6306 1.09594C87.7676 1.09594 86.2266 2.50185 86.2266 4.50554C86.2266 6.49816 87.7791 7.91513 89.6306 7.91513Z" fill="black"/>
<path d="M44.1365 4.14024L48.38 0.110718H46.8735L42.745 3.95205V0.110718H41.5605V8.88932H42.745V4.42806L47.2185 8.88932H48.8285L44.1365 4.14024Z" fill="black"/>
<path d="M34.8448 9C36.7308 9 38.1683 7.9262 38.1683 6.42066C38.1683 3.32103 32.6138 4.46125 32.6138 2.38007C32.6138 1.39483 33.6718 1.08487 34.4998 1.08487C35.6498 1.08487 36.5468 1.54982 37.0873 2.09225L37.8118 1.32841C37.0873 0.542435 35.9373 0 34.5573 0C32.5218 0 31.3603 1.11808 31.3603 2.41328C31.3603 5.61255 36.9263 4.36162 36.9263 6.48708C36.9263 7.4059 36.0063 7.91513 34.9368 7.91513C33.5453 7.91513 32.4873 7.23985 31.8203 6.56458L31.0498 7.4059C31.8318 8.26937 33.2003 9 34.8448 9Z" fill="black"/>
<path d="M69.92 9C71.806 9 73.2435 7.9262 73.2435 6.42066C73.2435 3.32103 67.689 4.46125 67.689 2.38007C67.689 1.39483 68.747 1.08487 69.575 1.08487C70.725 1.08487 71.622 1.54982 72.1625 2.09225L72.887 1.32841C72.1625 0.542435 71.0125 0 69.6325 0C67.597 0 66.4355 1.11808 66.4355 2.41328C66.4355 5.61255 72.0015 4.36162 72.0015 6.48708C72.0015 7.4059 71.0815 7.91513 70.012 7.91513C68.6205 7.91513 67.5625 7.23985 66.8955 6.56458L66.125 7.4059C66.907 8.26937 68.2755 9 69.92 9Z" fill="black"/>
<path d="M75.624 0.110718V1.17345H78.7405V8.88932H79.925V1.17345H83.0415V0.110718H75.624Z" fill="black"/>
<path d="M21.332 0.110718V1.17345H24.4485V8.88932H25.633V1.17345H28.7495V0.110718H21.332Z" fill="black"/>
<path d="M4.991 0.110718H3.818L0 8.88932H1.219L2.1275 6.73064H6.67L7.5785 8.88932H8.7975L4.991 0.110718ZM4.4045 1.38378L6.2445 5.73433H2.553L4.4045 1.38378Z" fill="black"/>
<path d="M19.1476 8.88932L16.8821 5.4133C17.9516 5.02585 18.7221 4.02954 18.7221 2.85611C18.7221 1.3395 17.4455 0.110718 15.87 0.110718H11.8105V8.88932H12.995V5.59042H15.64L17.756 8.88932H19.1476ZM12.9835 1.18452H15.8585C16.8245 1.18452 17.6066 1.93729 17.6066 2.86718C17.6066 3.78599 16.8245 4.53876 15.8585 4.53876H12.9835V1.18452Z" fill="black"/>
<path d="M104.949 8.88932L102.684 5.4133C103.753 5.02585 104.524 4.02954 104.524 2.85611C104.524 1.3395 103.247 0.110718 101.672 0.110718H97.6123V8.88932H98.7968V5.59042H101.442L103.558 8.88932H104.949ZM98.7968 1.18452H101.672C102.638 1.18452 103.42 1.93729 103.42 2.86718C103.42 3.78599 102.638 4.53876 101.672 4.53876H98.7968V1.18452Z" fill="black"/>
<path d="M108.399 8.88932H115V7.82658H109.584V4.94836H114.011V3.90777H109.584V1.17345H114.885V0.110718H108.399V8.88932Z" fill="black"/>
</svg>
