<svg width="8" height="8" viewBox="0 0 8 8" fill="none" xmlns="http://www.w3.org/2000/svg">
<path d="M0.629079 4.17747H3.82263V7.37101C3.82263 7.46899 3.90207 7.54843 4.00005 7.54843C4.09803 7.54843 4.17747 7.46899 4.17747 7.37101V4.17747H7.37101C7.46899 4.17747 7.54843 4.09803 7.54843 4.00005C7.54843 3.90207 7.46899 3.82263 7.37101 3.82263H4.17747V0.629079C4.17747 0.5311 4.09803 0.45166 4.00005 0.45166C3.90207 0.45166 3.82263 0.5311 3.82263 0.629079V3.82263H0.629079C0.5311 3.82263 0.45166 3.90207 0.45166 4.00005C0.45166 4.09803 0.5311 4.17747 0.629079 4.17747Z" fill="#877B71"/>
</svg>
